<svg version="1.1" id="Layer_1" xmlns="http://www.w3.org/2000/svg" x="0" y="0" width="484.8" height="484.8" xml:space="preserve"><g id="XMLID_198_"><path id="XMLID_201_" d="M250.5 288.6c-3.6-3.3-8.6-6.9-15.4-6.9s-11.8 3.6-15.3 6.8l-.1.1c-10.1 9.4-31 28.1-31.3 28.3-8.5 7.7-9.2 20.9-1.4 29.4 4 4.3 9.5 6.7 15.4 6.7 4.3 0 8.5-1.4 12-3.9V395c0 11.4 9.3 20.7 20.7 20.7s20.7-9.3 20.7-20.7v-45.8c3.5 2.5 7.7 3.9 12 3.9 5.9 0 11.5-2.5 15.4-6.8 7.7-8.5 7-21.6-1.6-29.4-.1-.2-21-18.9-31.1-28.3zm22.4 48.3c-1.3 1.4-3.1 2.2-5.1 2.2-1.2 0-2.9-.3-4.5-1.7-2.5-2.3-9.9-8.9-9.9-8.9l-11.7-10.6v77.2a6.7 6.7 0 01-13.4 0v-77.2l-11.7 10.6s-7.3 6.6-9.8 8.9c-1.3 1.2-2.9 1.8-4.5 1.8-1.9 0-3.8-.8-5.1-2.2-1.2-1.3-1.8-3-1.7-4.8.1-1.8.9-3.5 2.2-4.7.2-.2 21.2-18.9 31.4-28.4 2.5-2.3 4.3-3.2 5.9-3.2s3.4.9 5.9 3.2c10.2 9.5 31.2 28.2 31.3 28.4 1.4 1.2 2.2 2.9 2.3 4.7.2 1.6-.4 3.4-1.6 4.7z"/><path id="XMLID_204_" d="M408.5 316.9c-.2-.2-21.2-18.9-31.2-28.3l-.1-.1c-3.5-3.2-8.5-6.8-15.3-6.8-6.9 0-11.8 3.6-15.3 6.8l-.1.1c-10.1 9.4-31 28.1-31.3 28.3-4.1 3.7-6.5 8.8-6.8 14.3-.3 5.6 1.6 10.9 5.4 15.1 4 4.3 9.5 6.7 15.4 6.7 4.3 0 8.5-1.4 12-3.9V395c0 11.4 9.3 20.7 20.7 20.7s20.7-9.3 20.7-20.7v-45.8c3.5 2.5 7.7 3.9 12 3.9 5.9 0 11.5-2.5 15.4-6.8 3.7-4.1 5.6-9.4 5.3-15-.2-5.5-2.6-10.6-6.8-14.4zm-8.8 20c-1.3 1.4-3.1 2.2-5.1 2.2-1.2 0-2.9-.3-4.5-1.7-2.5-2.3-9.9-8.9-9.9-8.9l-11.7-10.6v77.2a6.7 6.7 0 01-13.4 0v-77.2l-11.7 10.6s-7.3 6.6-9.8 8.9c-1.3 1.2-2.9 1.8-4.5 1.8-1.9 0-3.8-.8-5.1-2.2-1.2-1.3-1.8-3-1.7-4.8.1-1.8.9-3.5 2.2-4.7.2-.2 21.2-18.9 31.4-28.4 2.5-2.3 4.3-3.2 5.9-3.2s3.4.9 5.9 3.2c10.2 9.5 31.2 28.2 31.4 28.4 1.4 1.2 2.2 2.9 2.3 4.7.1 1.6-.5 3.4-1.7 4.7z"/><path id="XMLID_277_" d="M440.2 0H268v82.1c0 3-2.5 5.5-5.5 5.5h-40.4c-3 0-5.5-2.5-5.5-5.5V0H44.5C20 0 0 20 0 44.5v395.8c0 24.5 20 44.5 44.5 44.5h395.8c24.5 0 44.5-20 44.5-44.5V44.4C484.7 19.9 464.7 0 440.2 0zm30.6 440.3c0 16.8-13.7 30.5-30.5 30.5H44.5c-16.8 0-30.5-13.7-30.5-30.5V44.5C14 27.7 27.7 14 44.5 14h158.2v68.1c0 10.7 8.7 19.5 19.5 19.5h40.4c10.7 0 19.5-8.7 19.5-19.5V14h158.2c16.8 0 30.5 13.7 30.6 30.5v395.8z"/></g></svg>