<svg version="1.1" id="Layer_1" xmlns="http://www.w3.org/2000/svg" x="0" y="0" width="504" height="495.7" xml:space="preserve"><g id="XMLID_90_"><path id="XMLID_120_" d="M400.9 231h-42.7v21.4c0 1.8-1.4 3.2-3.2 3.2h-13.6c-1.8 0-3.2-1.4-3.2-3.2V231h-42.7c-7.1 0-12.9 5.8-12.9 12.9v105.5c0 7.1 5.8 12.9 12.9 12.9H401c7.1 0 12.9-5.8 12.9-12.9V243.9c0-7.2-5.8-12.9-13-12.9zm-1 117.3H296.5V245h27.6v7.4c0 9.5 7.7 17.2 17.2 17.2H355c9.5 0 17.2-7.7 17.2-17.2V245h27.6v103.3z"/><path id="XMLID_132_" d="M208.6 231h-42.7v21.4c0 1.8-1.4 3.2-3.2 3.2H149c-1.8 0-3.2-1.4-3.2-3.2V231h-42.7c-7.1 0-12.9 5.8-12.9 12.9v105.5c0 7.1 5.8 12.9 12.9 12.9h105.5c7.1 0 12.9-5.8 12.9-12.9V243.9c0-7.2-5.8-12.9-12.9-12.9zm-1.1 117.3H104.1V245h27.6v7.4c0 9.5 7.7 17.2 17.2 17.2h13.6c9.5 0 17.2-7.7 17.2-17.2V245h27.6v103.3z"/><path id="XMLID_135_" d="M295.4 138.3h105.5c7.1 0 12.9-5.8 12.9-12.9V19.9c0-7.1-5.8-12.9-12.9-12.9h-42.7v21.4c0 1.8-1.4 3.2-3.2 3.2h-13.6c-1.8 0-3.2-1.4-3.2-3.2V7h-42.7c-7.1 0-12.9 5.8-12.9 12.9v105.5c-.1 7.2 5.7 12.9 12.8 12.9zM296.5 21h27.6v7.4c0 9.5 7.7 17.2 17.2 17.2H355c9.5 0 17.2-7.7 17.2-17.2V21h27.6v103.3H296.5V21z"/><path id="XMLID_138_" d="M103.1 138.3h105.5c7.1 0 12.9-5.8 12.9-12.9V19.9c0-7.1-5.8-12.9-12.9-12.9h-42.7v21.4c0 1.8-1.4 3.2-3.2 3.2H149c-1.8 0-3.2-1.4-3.2-3.2V7h-42.7C96 7 90.2 12.8 90.2 19.9v105.5c-.1 7.2 5.7 12.9 12.9 12.9zm1-117.3h27.6v7.4c0 9.5 7.7 17.2 17.2 17.2h13.6c9.5 0 17.2-7.7 17.2-17.2V21h27.6v103.3H104.1V21z"/><path id="XMLID_141_" d="M46.3 399.4h411.4V193.8H46.3v205.6zm14-191.6h383.4v177.6H60.3V207.8z"/><path id="XMLID_144_" d="M492.7 0H455c-6.2 0-11.3 5.1-11.3 11.3v150.2H60.3V11.3C60.3 5.1 55.2 0 49 0H11.3C5.1 0 0 5.1 0 11.3v473.1c0 6.2 5.1 11.3 11.3 11.3H49c6.2 0 11.3-5.1 11.3-11.3v-52.7h383.4v52.7c0 6.2 5.1 11.3 11.3 11.3h37.7c6.2 0 11.3-5.1 11.3-11.3V11.3C504 5.1 498.9 0 492.7 0zM490 481.7h-32.3v-64H46.3v64H14V14h32.3v161.5h411.4V14H490v467.7z"/><circle id="XMLID_145_" cx="473.7" cy="185.6" r="9"/><circle id="XMLID_146_" cx="473.7" cy="409.6" r="9"/><circle id="XMLID_147_" cx="30.7" cy="185.6" r="9"/><circle id="XMLID_148_" cx="30.7" cy="409.6" r="9"/></g></svg>