<svg version="1.1" id="Layer_1" xmlns="http://www.w3.org/2000/svg" x="0" y="0" width="547.6" height="478.9" xml:space="preserve"><g id="XMLID_276_"><path id="XMLID_466_" d="M547.4 136.8C547.4 61.2 486.2 0 410.7 0h-43.3v136.8h-.2c0 83.1-67.3 150.4-150.4 150.4v.2H102.6c-11.3 0-20.5 9.2-20.5 20.5v137c0 12.8-5.2 25.1-14.3 34.1h136.9v-34.1h.2c0-18.9 15.3-34.1 34.1-34.1v-.2h137.5v.2c18.9 0 34.1 15.3 34.1 34.1V479h118.7V352h18.3V136.8h-.2zM533.6 338h-4.3c-7.7 0-14 6.3-14 14v112.9h-90.7v-20.1c0-25.6-20.1-46.6-45.4-48.1-.9-.2-1.8-.3-2.8-.3H239c-.9 0-1.9.1-2.8.3-24.3 1.4-43.9 20.9-45.3 45.3-.2.9-.3 1.8-.3 2.8v20.1H92.7c2.2-6.4 3.4-13.3 3.4-20.1v-137c0-3.6 2.9-6.5 6.5-6.5h114.1c.8 0 1.6-.1 2.4-.2 21.3-.3 42-4.6 61.6-12.9s37.2-20.1 52.3-35.2c30.5-30.5 47.5-70.8 48.1-113.8.1-.8.2-1.6.2-2.4V14h29.3c32.8 0 63.6 12.8 86.8 36 23.2 23.2 36 54 36 86.8 0 .8.1 1.6.2 2.3V338z"/><path id="XMLID_470_" d="M68.5 307.9c0-18.9 15.3-34.1 34.1-34.1h114.1v-.2c75.5 0 136.8-61.2 136.8-136.8h.2V0H137C61.4 0 .2 61.2.2 136.8H0V479h34.3c18.9 0 34.1-15.3 34.1-34.1v-137zm-14 0v137c0 11.1-9 20.1-20.1 20.1H14V139.1c.1-.8.2-1.5.2-2.3 0-32.8 12.8-63.6 36-86.8 23.2-23.2 54-36 86.8-36h202.7v120.4c-.1.8-.2 1.5-.2 2.3 0 32.8-12.8 63.6-36 86.8-23.2 23.2-54 36-86.8 36-.8 0-1.6.1-2.3.2H102.6c-26.5 0-48.1 21.6-48.1 48.2z"/></g><circle id="XMLID_462_" cx="71.5" cy="183.2" r="12.2"/></svg>