<svg version="1.1" id="Layer_1" xmlns="http://www.w3.org/2000/svg" x="0" y="0" width="765.7" height="494.9" xml:space="preserve"><g id="XMLID_5_"><path id="XMLID_14_" d="M419.3 454.9h202.2v-66.5H419.3v66.5zm14-52.5h174.2v38.5H433.3v-38.5z"/><path id="XMLID_17_" d="M753.2 402.3c6.9 0 12.5-5.6 12.5-12.5v-29.1c0-6.9-5.6-12.5-12.5-12.5H12.5c-6.9 0-12.5 5.6-12.5 12.5v29.1c0 6.9 5.6 12.5 12.5 12.5h41.9v38.5H12.5c-6.9 0-12.5 5.6-12.5 12.5v29.1c0 6.9 5.6 12.5 12.5 12.5h740.7c6.9 0 12.5-5.6 12.5-12.5v-29.1c0-6.9-5.6-12.5-12.5-12.5h-41.9v-38.5h41.9zm-1.5 52.4v26.2H14v-26.2h54.5v-66.5H14V362h737.7v26.2h-54.5v66.5h54.5z"/><path id="XMLID_27_" d="M144.1 454.7h199.6v-66.5H144.1v66.5zm14-52.4h171.6v38.5H158.1v-38.5z"/><path id="XMLID_30_" d="M444.8 303h243c16.5 0 30-13.5 30-30V30c0-16.5-13.5-30-30-30H579.4v53.2c0 .4-.2.7-.7.7h-24.9c-.4 0-.7-.2-.7-.7V0H444.8c-16.5 0-30 13.5-30 30v243c0 16.6 13.5 30 30 30zm-16-273c0-8.8 7.2-16 16-16h94.4v39.2c0 8.2 6.4 14.7 14.7 14.7h24.9c8.2 0 14.7-6.4 14.7-14.7V14h94.4c8.8 0 16 7.2 16 16v243c0 8.8-7.2 16-16 16h-243c-8.8 0-16-7.2-16-16V30z"/><path id="XMLID_33_" d="M77.9 303h243c16.5 0 30-13.5 30-30V30c0-16.5-13.5-30-30-30H212.5v53.2c0 .4-.2.7-.7.7h-24.9c-.4 0-.7-.2-.7-.7V0H77.9c-16.5 0-30 13.5-30 30v243c0 16.6 13.4 30 30 30zm-16-273c0-8.8 7.2-16 16-16h94.4v39.2c0 8.2 6.4 14.7 14.7 14.7h24.9c8.2 0 14.7-6.4 14.7-14.7V14H321c8.8 0 16 7.2 16 16v243c0 8.8-7.2 16-16 16H78c-8.8 0-16-7.2-16-16V30z"/><path id="XMLID_34_" d="M544.1 215.2c2 0 4-.6 5.7-2.1 1.5-1.4 6-5.5 6-5.5v37.7c0 4.6 3.8 8.4 8.4 8.4s8.4-3.8 8.4-8.4v-37.7s4.4 4.1 6 5.5c1.7 1.4 3.7 2.1 5.7 2.1 2.3 0 4.6-.9 6.3-2.8 3.1-3.5 2.8-8.7-.6-12 0 0-12.9-11.5-19.2-17.3-1.8-1.7-4-3.1-6.6-3.1-2.8 0-4.8 1.4-6.6 3.1-6.3 5.8-19.2 17.3-19.2 17.3-3.5 3.2-3.7 8.4-.6 12 1.7 1.9 4 2.8 6.3 2.8z"/><path id="XMLID_35_" d="M621.9 215.2c2 0 4-.6 5.7-2.1 1.5-1.4 6-5.5 6-5.5v37.7c0 4.6 3.8 8.4 8.4 8.4s8.4-3.8 8.4-8.4v-37.7s4.4 4.1 6 5.5c1.7 1.4 3.7 2.1 5.7 2.1 2.3 0 4.6-.9 6.3-2.8 3.2-3.5 2.9-8.7-.6-12 0 0-12.9-11.5-19.2-17.3-1.8-1.7-4-3.1-6.6-3.1-2.8 0-4.8 1.4-6.6 3.1-6.3 5.8-19.2 17.3-19.2 17.3-3.5 3.2-3.7 8.4-.6 12 1.7 1.9 4 2.8 6.3 2.8z"/><path id="XMLID_36_" d="M176.9 215.2c2 0 4-.6 5.7-2.1 1.5-1.4 6-5.5 6-5.5v37.7c0 4.6 3.8 8.4 8.4 8.4s8.4-3.8 8.4-8.4v-37.7s4.4 4.1 6 5.5c1.7 1.4 3.7 2.1 5.7 2.1 2.3 0 4.6-.9 6.3-2.8 3.2-3.5 2.9-8.7-.6-12 0 0-12.9-11.5-19.2-17.3-1.8-1.7-4-3.1-6.6-3.1-2.8 0-4.8 1.4-6.6 3.1-6.3 5.8-19.2 17.3-19.2 17.3-3.5 3.2-3.7 8.4-.6 12 1.7 1.9 4 2.8 6.3 2.8z"/><path id="XMLID_37_" d="M254.9 215.2c2 0 4-.6 5.7-2.1 1.5-1.4 6-5.5 6-5.5v37.7c0 4.6 3.8 8.4 8.4 8.4s8.4-3.8 8.4-8.4v-37.7s4.4 4.1 6 5.5c1.7 1.4 3.7 2.1 5.7 2.1 2.3 0 4.6-.9 6.3-2.8 3.1-3.5 2.8-8.7-.6-12 0 0-12.9-11.5-19.2-17.3-1.8-1.7-4-3.1-6.6-3.1-2.8 0-4.8 1.4-6.6 3.1-6.3 5.8-19.2 17.3-19.2 17.3-3.5 3.2-3.7 8.4-.6 12 1.7 1.9 4 2.8 6.3 2.8z"/></g></svg>