<svg version="1.1" id="Layer_1" xmlns="http://www.w3.org/2000/svg" x="0" y="0" width="470.8" height="470.8" xml:space="preserve"><path id="XMLID_349_" d="M433.2 0H268v75.1c0 6.9-5.6 12.5-12.5 12.5h-40.4c-6.9 0-12.5-5.6-12.5-12.5V0H37.5C16.8 0 0 16.8 0 37.5v395.8c0 20.7 16.8 37.5 37.5 37.5h395.8c20.7 0 37.5-16.8 37.5-37.5V37.5C470.7 16.8 453.9 0 433.2 0zM271.1 334.6c-2.7 3-6.5 4.5-10.2 4.5-3.3 0-6.6-1.1-9.2-3.6-2.5-2.3-9.8-8.9-9.8-8.9V388c0 7.6-6.1 13.7-13.7 13.7s-13.7-6.1-13.7-13.7v-61.4s-7.4 6.7-9.8 8.9c-2.7 2.4-5.9 3.6-9.2 3.6-3.8 0-7.5-1.5-10.2-4.5-5.1-5.6-4.6-14.3 1-19.5 0 0 21.1-18.8 31.3-28.4 3-2.7 6.3-5 10.7-5s7.7 2.4 10.7 5c10.2 9.5 31.3 28.4 31.3 28.4 5.4 5.2 5.9 13.9.8 19.5zm126.8 0c-2.7 3-6.5 4.5-10.2 4.5-3.3 0-6.6-1.1-9.2-3.6-2.5-2.3-9.8-8.9-9.8-8.9V388c0 7.6-6.1 13.7-13.7 13.7s-13.7-6.1-13.7-13.7v-61.4s-7.4 6.7-9.8 8.9c-2.7 2.4-5.9 3.6-9.2 3.6-3.8 0-7.5-1.5-10.2-4.5-5.1-5.6-4.6-14.3 1-19.5 0 0 21.1-18.8 31.3-28.4 3-2.7 6.3-5 10.7-5 4.3 0 7.7 2.4 10.7 5 10.2 9.5 31.3 28.4 31.3 28.4 5.4 5.2 5.9 13.9.8 19.5z"/></svg>