<svg version="1.1" id="Layer_1" xmlns="http://www.w3.org/2000/svg" x="0" y="0" width="490" height="481.7" xml:space="preserve"><g id="XMLID_198_"><path id="XMLID_199_" d="M288.4 355.3h105.5c7.1 0 12.9-5.8 12.9-12.9V236.9c0-7.1-5.8-12.9-12.9-12.9h-42.7v21.4c0 1.8-1.4 3.2-3.2 3.2h-13.6c-1.8 0-3.2-1.4-3.2-3.2V224h-42.7c-7.1 0-12.9 5.8-12.9 12.9v105.5c-.1 7.1 5.7 12.9 12.8 12.9z"/><path id="XMLID_200_" d="M96.1 355.3h105.5c7.1 0 12.9-5.8 12.9-12.9V236.9c0-7.1-5.8-12.9-12.9-12.9h-42.7v21.4c0 1.8-1.4 3.2-3.2 3.2H142c-1.8 0-3.2-1.4-3.2-3.2V224H96.1c-7.1 0-12.9 5.8-12.9 12.9v105.5c-.1 7.1 5.7 12.9 12.9 12.9z"/><path id="XMLID_201_" d="M288.4 131.3h105.5c7.1 0 12.9-5.8 12.9-12.9V12.9C406.8 5.8 401 0 393.9 0h-42.7v21.4c0 1.8-1.4 3.2-3.2 3.2h-13.6c-1.8 0-3.2-1.4-3.2-3.2V0h-42.7c-7.1 0-12.9 5.8-12.9 12.9v105.5c-.1 7.2 5.7 12.9 12.8 12.9z"/><path id="XMLID_202_" d="M96.1 131.3h105.5c7.1 0 12.9-5.8 12.9-12.9V12.9c0-7.1-5.8-12.9-12.9-12.9h-42.7v21.4c0 1.8-1.4 3.2-3.2 3.2H142c-1.8 0-3.2-1.4-3.2-3.2V0H96.1C89 0 83.2 5.8 83.2 12.9v105.5c-.1 7.2 5.7 12.9 12.9 12.9z"/><path id="XMLID_205_" d="M485.7 0H448c-2.4 0-4.3 1.9-4.3 4.3v157.2H46.3V4.3C46.3 1.9 44.4 0 42 0H4.3C1.9 0 0 1.9 0 4.3v473.1c0 2.4 1.9 4.3 4.3 4.3H42c2.4 0 4.3-1.9 4.3-4.3v-59.7h397.4v59.7c0 2.4 1.9 4.3 4.3 4.3h37.7c2.4 0 4.3-1.9 4.3-4.3V4.3c0-2.4-1.9-4.3-4.3-4.3zM23.1 410.5c-5 0-9-4-9-9s4-9 9-9 9 4 9 9-4 9-9 9zm0-223.9c-5 0-9-4-9-9s4-9 9-9 9 4 9 9-4 9-9 9zm420.6 198.8H46.3V193.8h397.4v191.6zm23.2 25.1c-5 0-9-4-9-9s4-9 9-9 9 4 9 9c-.1 5-4.1 9-9 9zm0-223.9c-5 0-9-4-9-9s4-9 9-9 9 4 9 9c-.1 5-4.1 9-9 9z"/></g></svg>