<svg version="1.1" id="Layer_1" xmlns="http://www.w3.org/2000/svg" x="0" y="0" width="547.6" height="478.9" xml:space="preserve"><g id="XMLID_276_"><path id="XMLID_410_" d="M547.4 136.8C547.4 61.2 486.2 0 410.7 0h-43.3v136.8h-.2c0 83.1-67.3 150.4-150.4 150.4v.2H102.6c-11.3 0-20.5 9.2-20.5 20.5v137c0 12.8-5.2 25.1-14.3 34.1h136.9v-34.1h.2c0-18.9 15.3-34.1 34.1-34.1v-.2h137.5v.2c18.9 0 34.1 15.3 34.1 34.1V479h118.7V352h18.3V136.8h-.2z"/><path id="XMLID_413_" d="M68.5 307.9c0-18.9 15.3-34.1 34.1-34.1h114.1v-.2c75.5 0 136.8-61.2 136.8-136.8h.2V0H137C61.4 0 .2 61.2.2 136.8H0V479h34.3c18.9 0 34.1-15.3 34.1-34.1v-137zm-9.2-124.7c0-6.7 5.4-12.2 12.2-12.2s12.2 5.4 12.2 12.2c0 6.7-5.4 12.2-12.2 12.2s-12.2-5.5-12.2-12.2z"/></g></svg>