<svg version="1.1" id="Layer_1" xmlns="http://www.w3.org/2000/svg" x="0" y="0" width="749.6" height="479.8" xml:space="preserve"><g id="XMLID_5_"><path id="XMLID_14_" d="M744.1 387.3c3.1 0 5.5-2.5 5.5-5.5v-29.1c0-3.1-2.5-5.5-5.5-5.5H5.5c-3.1 0-5.5 2.5-5.5 5.5v29.1c0 3.1 2.5 5.5 5.5 5.5h48.8v52.3H5.5c-3.1 0-5.5 2.5-5.5 5.5v29.1c0 3.1 2.5 5.5 5.5 5.5H744c3.1 0 5.5-2.5 5.5-5.5v-29.1c0-3.1-2.5-5.5-5.5-5.5h-48.8v-52.3h48.9zm-415.3 52.4H143.7v-52.3h185.1v52.3zm277.1 0H418.1v-52.3h187.8v52.3z"/><path id="XMLID_37_" d="M436.6 288.2H679c12.7 0 22.9-10.3 22.9-22.9V22.9C701.9 10.2 691.6 0 679 0H577.7v46c0 4.2-3.4 7.6-7.6 7.6h-24.7c-4.2 0-7.6-3.4-7.6-7.6V0H436.6c-12.7 0-22.9 10.3-22.9 22.9v242.4c-.1 12.7 10.2 22.9 22.9 22.9zM605.3 193s12.9-11.5 19.2-17.4c1.8-1.7 3.9-3.1 6.5-3.1s4.7 1.4 6.5 3.1c6.3 5.8 19.2 17.4 19.2 17.4 3.4 3.1 3.7 8.4.6 11.9-1.7 1.8-3.9 2.8-6.2 2.8-2 0-4-.7-5.6-2.2-1.5-1.4-6-5.4-6-5.4v37.6c0 4.6-3.8 8.4-8.4 8.4-4.6 0-8.4-3.8-8.4-8.4V200s-4.5 4.1-6 5.4c-1.6 1.5-3.6 2.2-5.6 2.2-2.3 0-4.6-.9-6.2-2.8-3.3-3.4-3.1-8.7.4-11.8zm-77.7 0s12.9-11.5 19.2-17.4c1.8-1.7 3.9-3.1 6.5-3.1s4.7 1.4 6.5 3.1c6.3 5.8 19.2 17.4 19.2 17.4 3.4 3.1 3.7 8.4.6 11.9-1.7 1.8-3.9 2.8-6.2 2.8-2 0-4-.7-5.6-2.2-1.5-1.4-6-5.4-6-5.4v37.6c0 4.6-3.8 8.4-8.4 8.4-4.6 0-8.4-3.8-8.4-8.4V200s-4.5 4.1-6 5.4c-1.6 1.5-3.6 2.2-5.6 2.2-2.3 0-4.6-.9-6.2-2.8-3.3-3.4-3-8.7.4-11.8z"/><path id="XMLID_89_" d="M70.7 288.2H313c12.7 0 22.9-10.3 22.9-22.9V22.9C336 10.3 325.7 0 313 0H211.9v46c0 4.2-3.4 7.6-7.6 7.6h-24.7c-4.2 0-7.6-3.4-7.6-7.6V0H70.7c-12.7 0-23 10.3-23 22.9v242.4c0 12.7 10.3 22.9 23 22.9zM239.4 193s12.9-11.5 19.2-17.4c1.8-1.7 3.9-3.1 6.5-3.1s4.7 1.4 6.5 3.1c6.3 5.8 19.2 17.4 19.2 17.4 3.4 3.1 3.7 8.4.6 11.9-1.7 1.8-3.9 2.8-6.2 2.8-2 0-4-.7-5.6-2.2-1.5-1.4-6-5.4-6-5.4v37.6c0 4.6-3.8 8.4-8.4 8.4s-8.4-3.8-8.4-8.4V200s-4.5 4.1-6 5.4c-1.6 1.5-3.6 2.2-5.6 2.2-2.3 0-4.6-.9-6.2-2.8-3.3-3.4-3.1-8.7.4-11.8zm-77.6 0s12.9-11.5 19.2-17.4c1.8-1.7 3.9-3.1 6.5-3.1s4.7 1.4 6.5 3.1c6.3 5.8 19.2 17.4 19.2 17.4 3.4 3.1 3.7 8.4.6 11.9-1.7 1.8-3.9 2.8-6.2 2.8-2 0-4-.7-5.6-2.2-1.5-1.4-6-5.4-6-5.4v37.6c0 4.6-3.8 8.4-8.4 8.4-4.6 0-8.4-3.8-8.4-8.4V200s-4.5 4.1-6 5.4c-1.6 1.5-3.6 2.2-5.6 2.2-2.3 0-4.6-.9-6.2-2.8-3.4-3.4-3.1-8.7.4-11.8z"/></g></svg>