<?xml version="1.0" encoding="utf-8"?>
<!-- Generator: Adobe Illustrator 19.0.0, SVG Export Plug-In . SVG Version: 6.00 Build 0)  -->
<svg version="1.1" id="Layer_1" xmlns="http://www.w3.org/2000/svg" xmlns:xlink="http://www.w3.org/1999/xlink" x="0px" y="0px"
	 width="547.6px" height="478.9px" viewBox="0 0 547.6 478.9" style="enable-background:new 0 0 547.6 478.9;" xml:space="preserve"
	>
<g id="XMLID_276_">
	<path id="XMLID_410_" d="M547.4,136.8C547.4,61.2,486.2,0,410.7,0h-43.3v136.8h-0.2c0,83.1-67.3,150.4-150.4,150.4v0.2H102.6
		c-11.3,0-20.5,9.2-20.5,20.5v137c0,12.8-5.2,25.1-14.3,34.1h0.1h136.8v-34.1h0.2c0-18.9,15.3-34.1,34.1-34.1v-0.2h137.5v0.2
		c18.9,0,34.1,15.3,34.1,34.1v34.1h118.7V352h18.3V136.8H547.4z"/>
	<path id="XMLID_413_" d="M68.5,307.9c0-18.9,15.3-34.1,34.1-34.1h114.1v-0.2c75.5,0,136.8-61.2,136.8-136.8h0.2V0H137
		C61.4,0,0.2,61.2,0.2,136.8H0v342.2h34.3c18.9,0,34.1-15.3,34.1-34.1V307.9z M59.3,183.2c0-6.7,5.4-12.2,12.2-12.2
		s12.2,5.4,12.2,12.2c0,6.7-5.4,12.2-12.2,12.2S59.3,189.9,59.3,183.2z"/>
</g>
</svg>
